<?xml version="1.0" encoding="UTF-8" standalone="no"?>
<!DOCTYPE svg PUBLIC "-//W3C//DTD SVG 1.1//EN"
 "http://www.w3.org/Graphics/SVG/1.1/DTD/svg11.dtd">
<!-- Generated by graphviz version 2.40.1 (20161225.0304)
 -->
<!-- Title: Database Structure Pages: 1 -->
<svg width="138pt" height="144pt"
 viewBox="0.00 0.00 138.00 144.00" xmlns="http://www.w3.org/2000/svg" xmlns:xlink="http://www.w3.org/1999/xlink">
<g id="graph0" class="graph" transform="scale(1 1) rotate(0) translate(4 140)">
<title>Database Structure</title>
<polygon fill="#ffffff" stroke="transparent" points="-4,4 -4,-140 134,-140 134,4 -4,4"/>
<text text-anchor="middle" x="65" y="-120.8" font-family="Helvetica,sans-Serif" font-size="14.00" fill="#000000">ER Diagram: consoleDB</text>
<!-- users -->
<g id="node1" class="node">
<title>users</title>
<polygon fill="#dddddd" stroke="transparent" points="19,-87.5 19,-108.5 111,-108.5 111,-87.5 19,-87.5"/>
<polygon fill="none" stroke="#000000" points="19,-87.5 19,-108.5 111,-108.5 111,-87.5 19,-87.5"/>
<text text-anchor="start" x="53" y="-94.3" font-family="Times,serif" font-size="14.00" fill="#000000">Users</text>
<polygon fill="none" stroke="#000000" points="19,-66.5 19,-87.5 111,-87.5 111,-66.5 19,-66.5"/>
<text text-anchor="start" x="52.5" y="-74.3" font-family="Times,serif" font-size="14.00" fill="#000000">id:</text>
<text text-anchor="start" x="64.5" y="-74.3" font-family="Helvetica,sans-Serif" font-style="oblique" font-size="10.00" fill="#000000">INT</text>
<polygon fill="none" stroke="#000000" points="19,-45.5 19,-66.5 111,-66.5 111,-45.5 19,-45.5"/>
<text text-anchor="start" x="22.5" y="-53.3" font-family="Times,serif" font-size="14.00" fill="#000000">FirstName:</text>
<text text-anchor="start" x="70.5" y="-53.3" font-family="Helvetica,sans-Serif" font-style="oblique" font-size="10.00" fill="#000000">VARCHAR</text>
<polygon fill="none" stroke="#000000" points="19,-24.5 19,-45.5 111,-45.5 111,-24.5 19,-24.5"/>
<text text-anchor="start" x="23" y="-32.3" font-family="Times,serif" font-size="14.00" fill="#000000">LastName:</text>
<text text-anchor="start" x="70" y="-32.3" font-family="Helvetica,sans-Serif" font-style="oblique" font-size="10.00" fill="#000000">VARCHAR</text>
<polygon fill="none" stroke="#000000" points="19,-3.5 19,-24.5 111,-24.5 111,-3.5 19,-3.5"/>
<text text-anchor="start" x="22" y="-11.3" font-family="Times,serif" font-size="14.00" fill="#000000">FavoriteNumber:</text>
<text text-anchor="start" x="95" y="-11.3" font-family="Helvetica,sans-Serif" font-style="oblique" font-size="10.00" fill="#000000">INT</text>
</g>
</g>
</svg>
